{"title":"Iron Man 2 TS XViD IMAGiNE","uid":5545461,"size":1454744288,"categoryP":"video","categoryS":"movies","magnet":"?xt=urn:btih:f2fb25916d29c6d9485081767803faea21fc4078&amp;dn=Iron+Man+2+TS+XViD+IMAGiNE&amp;tr=udp%3A%2F%2Ftracker.openbittorrent.com%3A80&amp;tr=udp%3A%2F%2Fopen.demonii.com%3A1337&amp;tr=udp%3A%2F%2Ftracker.coppersurfer.tk%3A6969&amp;tr=udp%3A%2F%2Fexodus.desync.com%3A6969","seeders":0,"leechers":0,"uploader":"DibyaTPB","files":100,"time":1273366328,"description":"Another Fine Release Brought to you from - IMAGiNE\n[url=&quot;http://imaginegroup.me/&quot;]http://imaginegroup.me/[/url]\n\n********************************************************************************\n************************************\nIron Man 2 TS XViD - IMAGiNE\n********************************************************************************\n************************************\n\nRipper ...........: IMAGiNE IMDB Rating.......:7.9/10\nVideo Codec.......: XVID Release Date......:08/05/10\nAudio Codec.......:MP3 Theatre Date......:07/05/10\nAudio Bitrate.....:128 Runtime.......:1h 52mn\nSubtitles.........:NIL Language..........:ENGLISH\nResolution...... 720 x 288 IMDb URL..........:http://www.imdb.com/title/tt1228705/\n\n\nDETAILS:\n\nVideo\nID : 0\nFormat : MPEG-4 Visual\nFormat profile : Advanced Simple@L5\nFormat settings, BVOP : Yes\nFormat settings, QPel : No\nFormat settings, GMC : No warppoints\nFormat settings, Matrix : Default (MPEG)\nMuxing mode : Packed bitstream\nCodec ID : XVID\nCodec ID/Hint : XviD\nDuration : 1h 52mn\nBit rate : 1 608 Kbps\nWidth : 720 pixels\nHeight : 288 pixels\nDisplay aspect ratio : 2.500\nFrame rate : 25.000 fps\nResolution : 24 bits\nColorimetry : 4:2:0\nScan type : Progressive\nBits/(Pixel*Frame) : 0.310\nStream size : 1.26 GiB (100%)\nWriting library : XviD 1.2.1 (UTC 2008-12-04)\n\n\nAudio\nFormat : MPEG Audio\nFormat version : Version 1\nFormat profile : Layer 3\nMode : Joint stereo\nFormat_Settings_ModeExtension : MS Stereo\nDuration : 1h 52mn\nBit rate mode : Constant\nBit rate : 128 Kbps\nChannel(s) : 2 channels\nSampling rate : 48.0 KHz\nStream size : 103 MiB (100%)\n\n\n\nNOTES:\n\nIMAGiNE bringing you another release.....Iron Man 2\n\nSources used....Russian TS and the audio is our own direct audio that we mentioned in the cam release. ;-) Syncing it was a right pain, but turned out great.\n\n\n\nEnjoy\n\n\nSCREENS:\n\nlooks good!","torrent":{"xt":"urn:btih:f2fb25916d29c6d9485081767803faea21fc4078","amp;dn":"Iron+Man+2+TS+XViD+IMAGiNE","amp;tr":["udp%3A%2F%2Ftracker.openbittorrent.com%3A80","udp%3A%2F%2Fopen.demonii.com%3A1337","udp%3A%2F%2Ftracker.coppersurfer.tk%3A6969","udp%3A%2F%2Fexodus.desync.com%3A6969"],"infoHash":"f2fb25916d29c6d9485081767803faea21fc4078","infoHashBuffer":{"type":"Buffer","data":[242,251,37,145,109,41,198,217,72,80,129,118,120,3,250,234,33,252,64,120]},"announce":[],"urlList":[]}}